PathFileType	4	(X/Y/Z)	C:\Users\WrightLab\Desktop\Jo\P3_9.trc
DataRate	CameraRate	NumFrames	NumMarkers	Units	OrigDataRate	OrigDataStartFrame	OrigNumFrames
100.00	100.00	       26	19	mm	100.00	469	       535
Frame#	Time	Headset_Front			Headset_Back			Headset_Left			Headset_Right			Left_Shoulder			Right_Shoulder			Sternum			C7			Left Elbow			Right Elbow			Left Wrist			Right Wrist			Left ASIS			Right ASIS			S2			Left Knee			Right Knee			Left Ankle			Right Ankle			
		X1	Y1	Z1	X2	Y2	Z2	X3	Y3	Z3	X4	Y4	Z4	X5	Y5	Z5	X6	Y6	Z6	X7	Y7	Z7	X8	Y8	Z8	X9	Y9	Z9	X10	Y10	Z10	X11	Y11	Z11	X12	Y12	Z12	X13	Y13	Z13	X14	Y14	Z14	X15	Y15	Z15	X16	Y16	Z16	X17	Y17	Z17	X18	Y18	Z18	X19	Y19	Z19	

469	4.680	-775.74799	1518.97852	-1135.25195										-902.76001	1279.00037	-1075.75159	-569.08417	1302.24048	-946.95599	-689.74823	1172.41406	-1134.72778	-748.24622	1343.71948	-965.37274	-969.88513	947.43994	-1066.05310	-476.50818	961.62805	-898.47968	-947.08563	757.66699	-1154.07813	-412.79184	796.88971	-1046.13000	-781.79944	808.46912	-1138.14197	-740.21576	892.73962	-897.95496							-604.03107	391.02713	-949.99500				-653.71179	97.93172	-783.24646	
470	4.690	-774.78339	1519.54651	-1143.48486										-902.63892	1279.08716	-1085.51062	-569.54901	1302.19971	-954.32477	-688.98468	1172.75818	-1143.67908	-749.63257	1344.34583	-974.45685	-969.57745	947.06464	-1076.72522	-477.85907	961.31769	-904.58044	-945.68671	757.39288	-1164.69324	-413.61426	794.21783	-1048.91638	-780.36328	808.44318	-1147.23926	-740.15790	892.35840	-905.65204							-602.75873	389.93085	-959.16193				-653.87408	100.66270	-786.09369	
471	4.700	-773.46112	1520.91260	-1152.03589										-902.24750	1279.64209	-1095.90845	-569.95044	1302.80115	-960.49841	-688.11096	1173.51892	-1151.83411	-750.83832	1344.86902	-983.74561	-969.21167	946.78864	-1088.16748	-480.20538	961.82843	-910.60291	-944.22717	757.29553	-1175.04028	-414.58804	792.71332	-1050.86768	-778.82996	808.97321	-1156.19092	-739.26276	892.79077	-914.89880							-602.16174	389.75931	-969.41754				-654.09027	103.92844	-790.59735	
472	4.710	-771.94684	1522.67542	-1159.96045										-901.83752	1280.03711	-1105.46240	-570.51758	1303.39746	-965.80170	-687.23425	1174.50537	-1159.78760	-750.81586	1345.62891	-991.43280	-967.99408	948.03442	-1099.48303	-482.19342	962.90167	-916.37323	-942.38489	757.68787	-1185.36157	-413.04953	792.39160	-1050.73914	-777.42957	809.92078	-1165.26978	-738.38477	894.06012	-923.37317							-600.62958	388.31595	-979.10754				-653.90198	108.24444	-793.65985	
473	4.720	-770.53503	1524.35107	-1168.82947										-901.17169	1280.66821	-1115.78394	-571.27747	1305.25293	-972.87628	-686.25311	1175.81287	-1168.18750	-751.05365	1346.31042	-1000.85394	-967.48022	948.90179	-1109.80493	-483.03403	964.95374	-920.59851	-940.32037	758.50342	-1195.99634	-417.20844	791.28406	-1055.20251	-775.97565	811.08893	-1173.84082	-737.25208	895.46106	-932.88098							-597.97955	388.27701	-992.85590				-654.27051	111.22840	-798.57770	
474	4.730	-768.90094	1526.26563	-1177.24524										-900.58575	1282.05286	-1125.95154	-572.32159	1305.93518	-981.08508	-685.06158	1177.45801	-1176.66602	-751.64600	1347.25916	-1009.23584	-965.82684	949.18073	-1120.00537	-486.18964	965.89948	-926.81812	-938.19971	759.44934	-1206.42188	-418.60416	790.44537	-1057.03735	-774.02386	813.54132	-1182.25720	-736.15759	896.37152	-940.27246							-595.69061	388.14767	-1004.87842				-653.72668	115.81561	-804.83051	
475	4.740	-767.34003	1527.97974	-1185.92542										-899.54773	1283.14441	-1135.87415	-573.33545	1308.13293	-988.62787	-683.93982	1178.92126	-1184.88159	-753.09625	1348.98999	-1018.19666	-964.84961	951.03320	-1131.81250	-487.55453	968.87476	-931.58679	-935.90936	760.61060	-1216.75745	-419.95020	790.34045	-1058.52429	-772.80042	815.13550	-1190.37683	-735.88757	898.55902	-948.89465							-591.17078	387.05981	-1018.23456				-653.53088	121.33740	-811.46350	
476	4.750	-765.58820	1530.01575	-1194.45251										-899.75098	1285.09143	-1145.76367	-575.24158	1310.08154	-997.37817	-682.50525	1180.82581	-1193.03772				-962.83636	952.02850	-1142.25818	-490.19418	971.45001	-937.80591	-933.44128	761.95544	-1227.31335	-421.85104	790.68939	-1059.65967	-771.25854	817.50885	-1198.88135	-734.32343	898.85986	-956.30353							-588.35156	386.20511	-1032.69324				-653.67340	125.39249	-819.61780	
477	4.760	-763.95050	1531.39648	-1202.22266	-752.92438	1350.82263	-1035.15784							-898.19250	1285.98523	-1155.70166	-576.17896	1312.71472	-1004.84869	-680.87952	1182.61633	-1201.02002				-962.25958	953.47931	-1152.57837	-492.77194	973.17255	-942.28998	-930.96643	763.30072	-1237.97302	-422.98175	790.37640	-1060.28857	-769.68402	819.47144	-1206.32422	-733.53998	900.82574	-964.36975							-584.04230	386.04007	-1046.37988				-652.64764	132.17078	-828.53601	
478	4.770	-761.98273	1533.45508	-1210.91650	-753.40607	1352.08167	-1044.16919							-897.45038	1287.74084	-1165.89307	-577.43774	1314.05237	-1011.50635	-679.17072	1184.22498	-1208.63269				-960.57800	954.69299	-1163.25073	-493.60785	976.39978	-946.74860	-928.13318	765.35034	-1249.79468	-424.00302	791.25629	-1062.68091	-768.34503	821.50238	-1214.75574	-733.95129	902.58295	-972.75507							-579.98035	385.29562	-1060.54236				-651.87335	137.80374	-836.16345	
479	4.780	-760.14264	1535.00256	-1218.46899	-754.11011	1352.99036	-1052.62671							-895.60284	1288.70178	-1176.19482	-578.60199	1315.84534	-1018.29553	-677.22327	1185.71802	-1216.29553				-959.68665	956.51282	-1174.53809	-498.61325	977.47266	-953.45801	-925.42578	766.53094	-1260.51404	-424.86905	791.25885	-1065.43750	-766.66467	823.57074	-1222.35474	-733.35889	903.66577	-980.24622							-573.58862	386.07663	-1073.60437				-651.85321	144.28329	-846.33502	
480	4.790	-758.09100	1536.56372	-1227.01404	-755.38098	1354.62561	-1061.23914							-894.42206	1289.53845	-1186.37378	-577.93854	1318.46985	-1020.06683	-675.26605	1186.77307	-1223.60059				-957.81665	957.05310	-1184.66748	-498.87387	980.48450	-957.35809	-922.57751	767.60327	-1271.13904	-426.26270	792.08740	-1067.17834	-765.31915	824.62335	-1230.39099	-732.97980	905.66937	-987.90802							-570.20081	386.24020	-1088.96484				-652.46967	150.60544	-856.06030	
481	4.800	-756.04956	1537.77722	-1234.52893	-754.64020	1354.94983	-1069.79382							-892.80511	1290.27368	-1196.14148	-578.54883	1319.65942	-1026.64014	-672.82532	1188.06909	-1230.34644				-956.95404	957.78638	-1195.25708	-499.80991	981.91394	-960.64832	-919.55389	769.28088	-1283.51660	-426.90347	792.99408	-1069.01941	-763.69659	825.02087	-1237.31104	-734.16577	906.29004	-994.00146							-565.24231	387.66214	-1103.02466				-652.42932	157.22647	-866.82770	
482	4.810	-753.81738	1539.28613	-1242.43933	-753.98157	1355.07263	-1077.90442							-890.46466	1290.38550	-1206.36218	-579.35291	1320.93848	-1033.10547	-670.49396	1188.82764	-1237.96240				-954.98651	958.59485	-1206.73181	-501.73694	984.33807	-964.97150	-916.47955	770.14172	-1294.59534	-427.84616	793.90393	-1073.00867	-762.17053	825.47552	-1245.25293	-734.83173	906.96161	-1001.45306							-561.48950	388.29800	-1117.79871				-652.16089	165.43394	-876.35626	
483	4.820	-751.61005	1540.26099	-1250.17944	-755.22351	1356.75989	-1086.56396							-889.19543	1291.17334	-1216.78577	-580.23669	1322.13904	-1039.67834	-668.09009	1189.13489	-1244.73340				-953.15948	958.58649	-1217.86182	-502.34903	986.06946	-968.90198	-913.45203	770.93640	-1306.68835	-428.33362	793.98352	-1073.69775				-734.93945	907.90106	-1007.79865							-556.91248	389.92926	-1130.80139				-652.46637	172.29308	-886.41339	
484	4.830	-749.22717	1541.38684	-1257.79590	-755.91138	1357.54907	-1094.79211							-886.68201	1290.66321	-1226.27148	-580.57660	1323.71143	-1045.80859	-665.27368	1189.72217	-1251.19592				-951.79590	959.05939	-1229.39478	-502.24619	986.43237	-973.13245	-910.08862	771.42743	-1317.77930	-428.85367	794.90259	-1077.66431	-758.53229	827.22791	-1264.08997	-735.32562	908.77203	-1014.58801							-551.46350	392.28558	-1142.99817				-652.31482	178.88913	-897.29480	
485	4.840	-746.89362	1542.18848	-1265.16467	-754.44604	1358.39111	-1103.04785							-884.02185	1291.06580	-1236.54382	-581.30756	1324.28931	-1051.27380	-662.47137	1190.28601	-1258.15906				-949.82184	958.84961	-1240.39380	-502.62000	988.24255	-976.43689	-906.42719	772.05658	-1329.19727	-428.41403	794.76501	-1077.75989				-736.09113	909.22192	-1022.48328							-546.05243	395.12384	-1155.75818				-652.14752	184.64972	-909.21338	
486	4.850				-754.71265	1358.50281	-1111.40637							-881.81909	1290.85315	-1246.78052	-581.56750	1324.76477	-1056.81360	-659.85370	1189.83936	-1264.13879				-947.56683	958.96692	-1252.42371	-503.43246	989.84235	-980.30792	-902.64301	772.50653	-1340.89783	-428.10416	795.80707	-1081.15820				-736.69867	910.47717	-1027.53418							-540.84290	398.75055	-1165.46057				-652.74188	189.60269	-921.21936	
487	4.860				-755.19751	1360.19141	-1119.43713							-879.47644	1291.41833	-1256.71167	-581.85535	1326.02612	-1062.93225	-657.08813	1189.91577	-1271.44482				-945.47534	959.34662	-1264.51453	-503.88696	990.44238	-984.14105	-898.44928	772.72015	-1352.19446	-428.30585	798.04742	-1085.60938				-736.75220	910.33344	-1034.07239							-535.79828	399.89969	-1176.24365				-651.79016	192.61188	-934.51642	
488	4.870				-752.92981	1359.61719	-1126.95398							-876.56134	1290.85376	-1266.54602	-582.12909	1326.40991	-1067.76624	-654.27728	1189.55823	-1277.41980				-942.44165	959.09680	-1276.77832	-504.73782	990.64679	-987.73615	-893.98047	773.26312	-1364.09045	-427.88812	798.67700	-1088.05212				-736.67181	910.77313	-1040.34375							-532.15417	403.94604	-1188.56616				-650.92853	194.99922	-949.50793	
489	4.880				-752.95221	1360.48438	-1134.96814							-873.06970	1290.10559	-1275.65503	-582.18042	1327.32690	-1073.62085	-651.41699	1189.39441	-1283.57715				-939.44928	959.43268	-1288.73206	-504.76392	993.29736	-988.92151	-889.37634	773.75623	-1375.49182	-427.16010	800.57227	-1090.97461				-736.17383	912.56097	-1046.29993							-528.13776	405.11331	-1200.90393				-649.17664	196.62541	-961.74207	
490	4.890				-751.73859	1361.00769	-1142.85864							-870.00940	1290.17737	-1285.39160	-582.07788	1327.93152	-1079.12720	-648.48090	1189.37549	-1289.68555				-935.98969	959.24902	-1300.43726	-505.38593	994.01624	-992.24054				-425.97400	802.13135	-1094.23999				-736.03284	912.80707	-1052.50415							-521.73596	408.84909	-1209.26013				-647.34467	196.66342	-978.03278	
491	4.900				-752.48926	1361.26038	-1150.71191							-866.93359	1289.92981	-1294.55823	-581.97656	1329.03650	-1084.53491							-932.46283	959.44116	-1312.48022	-505.40527	994.78668	-994.41730				-425.01917	803.45563	-1097.20471				-736.40991	914.18842	-1059.61487							-517.36853	410.77411	-1220.59509				-642.63245	197.40773	-990.86823	
492	4.910				-749.93719	1361.15149	-1158.02673							-863.62152	1290.28833	-1303.81226	-581.94299	1329.24597	-1089.77246							-928.81946	960.11725	-1324.46765	-506.15466	995.43500	-997.60809				-423.97061	805.82294	-1100.43164				-736.14539	914.07617	-1065.59888							-512.01251	413.87781	-1230.99817				-640.67810	194.38177	-1005.73376	
493	4.920				-750.11957	1362.05103	-1165.17859										-581.85809	1330.29846	-1094.58948							-925.17285	960.24854	-1336.52075	-508.23969	995.58179	-1001.98511				-423.07492	808.04193	-1102.87439				-736.05450	914.23694	-1070.68298							-509.99142	415.22726	-1241.75806				-635.76709	190.67139	-1019.90350	
494	4.930																-582.02264	1330.86951	-1099.24121							-921.40802	960.67310	-1347.56079	-509.88129	997.20160	-1005.47546				-420.56882	808.33191	-1104.77734				-736.22321	915.93365	-1077.09595							-504.60510	417.72549	-1250.48340				-632.25714	188.07126	-1035.42969	
